<?xml version="1.0" encoding="utf-8"?>
<!-- Generator: Adobe Illustrator 16.0.0, SVG Export Plug-In . SVG Version: 6.00 Build 0)  -->
<!DOCTYPE svg PUBLIC "-//W3C//DTD SVG 1.1//EN" "http://www.w3.org/Graphics/SVG/1.1/DTD/svg11.dtd">
<svg version="1.1" id="Layer_1" xmlns="http://www.w3.org/2000/svg" xmlns:xlink="http://www.w3.org/1999/xlink" x="0px" y="0px"
	 width="286.75px" height="144.5px" viewBox="-262.25 -135.5 286.75 144.5" enable-background="new -262.25 -135.5 286.75 144.5"
	 xml:space="preserve">
<g>
	<rect x="-22.47" y="-108.172" fill="#FFFFFF" width="7.715" height="23.417"/>
	<path fill="#FFFFFF" d="M10.567-106.035c-1.618-1.788-3.761-2.685-6.427-2.685c-0.982,0-1.876,0.123-2.679,0.37
		c-0.795,0.243-1.475,0.585-2.027,1.028c-0.552,0.44-0.989,0.851-1.32,1.226c-0.317,0.36-0.618,0.778-0.912,1.252v-3.328h-7.694
		l0.022,1.134c0.02,0.756,0.033,3.085,0.033,6.995c0,3.909-0.024,9.005-0.048,15.288h7.693v-13.064c0-0.806,0.083-1.446,0.254-1.916
		c0.329-0.808,0.824-1.479,1.486-2.022c0.662-0.548,1.486-0.816,2.468-0.816c1.337,0,2.323,0.467,2.955,1.402
		c0.631,0.939,0.947,2.232,0.947,3.891v12.524H13v-13.421C13-101.629,12.189-104.247,10.567-106.035z"/>
	<path fill="#FFFFFF" d="M-18.564-119.447c-1.293,0-2.336,0.379-3.137,1.144c-0.8,0.764-1.206,1.729-1.206,2.897
		c0,1.149,0.39,2.11,1.168,2.885c0.778,0.771,1.811,1.159,3.086,1.159h0.048c1.311,0,2.372-0.388,3.169-1.159
		c0.798-0.772,1.193-1.731,1.175-2.885c-0.009-1.167-0.415-2.127-1.188-2.897C-16.232-119.068-17.271-119.447-18.564-119.447z"/>
</g>
<path fill="#FFFFFF" d="M-237.518-109.139v-3.519c0-0.526,0.022-0.937,0.071-1.225c0.047-0.291,0.158-0.574,0.33-0.855
	c0.171-0.281,0.449-0.474,0.833-0.584c0.386-0.108,0.896-0.161,1.534-0.161h3.483v-7.038h-5.564c-3.221,0-5.532,0.771-6.939,2.316
	c-1.405,1.545-2.105,3.821-2.105,6.828v4.237h-4.168v7.039h4.166v20.42h8.363v-20.42h5.564l0.735-7.039H-237.518z"/>
<path fill="#FFFFFF" d="M-139.629-114.746c-1.589,0.692-3.178,1.124-4.77,1.296c1.795-1.089,3.01-2.628,3.643-4.613
	c-1.641,0.985-3.394,1.659-5.257,2.022c-1.641-1.76-3.658-2.644-6.049-2.644c-2.292,0-4.245,0.814-5.855,2.449
	c-1.619,1.634-2.424,3.605-2.424,5.921c0,0.619,0.067,1.26,0.206,1.917c-3.385-0.173-6.561-1.032-9.525-2.58
	c-2.963-1.544-5.479-3.605-7.549-6.18c-0.75,1.295-1.127,2.702-1.127,4.222c0,1.434,0.33,2.765,1,3.99
	c0.667,1.228,1.562,2.219,2.691,2.979c-1.335-0.052-2.579-0.406-3.742-1.062v0.102c0,2.021,0.627,3.795,1.883,5.325
	c1.257,1.529,2.842,2.491,4.756,2.888c-0.718,0.191-1.445,0.284-2.182,0.284c-0.478,0-0.999-0.041-1.562-0.129
	c0.529,1.676,1.504,3.054,2.923,4.133c1.418,1.08,3.027,1.636,4.819,1.671c-3.008,2.384-6.435,3.575-10.28,3.575
	c-0.734,0-1.401-0.035-2-0.104c3.845,2.505,8.085,3.758,12.716,3.758c2.94,0,5.701-0.47,8.278-1.411
	c2.581-0.944,4.787-2.204,6.614-3.785c1.827-1.58,3.408-3.399,4.729-5.455c1.326-2.055,2.311-4.202,2.96-6.439
	s0.977-4.479,0.977-6.725c0-0.483-0.01-0.847-0.027-1.089C-142.159-111.609-140.777-113.053-139.629-114.746z"/>
<g>
	<path fill="#FFFFFF" d="M-75.979-96.517c-0.43-0.581-0.901-1.121-1.42-1.62c-0.518-0.5-1.039-0.955-1.554-1.364
		c-0.517-0.409-0.991-0.801-1.422-1.178c-0.428-0.377-0.778-0.769-1.043-1.178c-0.268-0.411-0.401-0.825-0.401-1.252
		c0-0.59,0.187-1.142,0.559-1.656c0.371-0.515,0.824-1.015,1.359-1.498c0.535-0.483,1.07-1.009,1.603-1.584
		c0.533-0.574,0.984-1.33,1.361-2.271c0.369-0.942,0.555-2.017,0.555-3.226c0-1.438-0.315-2.823-0.947-4.148
		c-0.629-1.325-1.521-2.357-2.667-3.092h3.274l3.279-1.938h-10.609c-1.506,0-3.019,0.164-4.538,0.492
		c-2.253,0.509-4.147,1.667-5.681,3.475c-1.539,1.808-2.306,3.857-2.306,6.148c0,2.421,0.864,4.434,2.584,6.038
		c1.721,1.604,3.79,2.405,6.205,2.405c0.482,0,1.052-0.041,1.701-0.123c-0.035,0.132-0.092,0.308-0.171,0.528
		c-0.081,0.22-0.145,0.397-0.197,0.526c-0.046,0.132-0.088,0.29-0.119,0.479c-0.035,0.188-0.048,0.379-0.048,0.577
		c0,1.08,0.517,2.298,1.552,3.657c-1.23,0.034-2.444,0.141-3.643,0.331c-1.197,0.186-2.453,0.483-3.761,0.883
		c-1.313,0.401-2.486,0.984-3.521,1.745c-1.035,0.76-1.815,1.663-2.332,2.711c-0.599,1.212-0.896,2.316-0.896,3.313
		c0,1.096,0.243,2.092,0.728,2.981c0.487,0.892,1.107,1.62,1.87,2.185c0.761,0.565,1.64,1.039,2.635,1.426
		c0.995,0.383,1.984,0.657,2.959,0.821c0.979,0.163,1.946,0.243,2.902,0.243c4.338,0,7.738-1.074,10.197-3.213
		c2.267-1.999,3.4-4.304,3.4-6.922c0-0.935-0.134-1.807-0.401-2.615C-75.202-95.242-75.55-95.937-75.979-96.517z M-85.339-105.439
		c-0.824,0-1.609-0.212-2.354-0.637c-0.745-0.427-1.376-0.979-1.896-1.656c-0.515-0.679-0.971-1.446-1.357-2.297
		c-0.386-0.851-0.675-1.702-0.864-2.552c-0.184-0.851-0.276-1.661-0.276-2.43c0-1.57,0.412-2.92,1.236-4.048
		c0.824-1.13,1.992-1.695,3.498-1.695c1.07,0,2.034,0.335,2.9,1.008c0.871,0.671,1.545,1.522,2.039,2.552
		c0.496,1.032,0.875,2.096,1.142,3.203c0.268,1.105,0.403,2.149,0.403,3.129c0,1.638-0.355,2.952-1.059,3.941
		S-83.77-105.439-85.339-105.439z M-78.627-87.008c-0.443,0.772-1.045,1.371-1.809,1.805c-0.76,0.433-1.571,0.752-2.439,0.957
		c-0.868,0.206-1.775,0.308-2.731,0.308c-1.039,0-2.065-0.122-3.086-0.368c-1.017-0.245-1.995-0.617-2.924-1.116
		c-0.929-0.5-1.683-1.185-2.26-2.063c-0.574-0.873-0.861-1.869-0.861-2.981c0-0.98,0.219-1.856,0.655-2.625
		c0.437-0.77,0.993-1.383,1.677-1.843c0.678-0.456,1.473-0.833,2.381-1.127c0.905-0.295,1.78-0.5,2.621-0.615
		c0.842-0.116,1.701-0.173,2.574-0.173c0.53,0,0.938,0.019,1.212,0.048c0.099,0.066,0.344,0.238,0.741,0.518
		c0.397,0.277,0.665,0.467,0.8,0.565c0.138,0.097,0.39,0.288,0.754,0.563c0.364,0.279,0.621,0.488,0.778,0.628
		c0.151,0.138,0.375,0.346,0.667,0.624c0.292,0.279,0.506,0.52,0.644,0.723c0.136,0.201,0.307,0.453,0.509,0.748
		c0.204,0.298,0.346,0.577,0.425,0.846c0.081,0.271,0.155,0.567,0.23,0.885c0.072,0.323,0.11,0.651,0.11,0.994
		C-77.957-88.676-78.18-87.775-78.627-87.008z"/>
	<polygon fill="#FFFFFF" points="-65.042,-116.238 -65.042,-122.521 -68.15,-122.521 -68.15,-116.238 -74.366,-116.238 
		-74.366,-113.099 -68.15,-113.099 -68.15,-106.813 -65.042,-106.813 -65.042,-113.099 -58.826,-113.099 -58.826,-116.238 	"/>
</g>
<g>
	<rect x="-23.386" y="-27.625" fill="#333333" width="7.716" height="23.416"/>
	<path fill="#333333" d="M9.651-25.49c-1.618-1.786-3.762-2.683-6.427-2.683c-0.982,0-1.876,0.122-2.677,0.37
		c-0.795,0.244-1.477,0.585-2.03,1.028c-0.552,0.439-0.988,0.851-1.319,1.223c-0.318,0.359-0.616,0.78-0.91,1.254v-3.328h-7.696
		l0.024,1.134c0.018,0.753,0.031,3.084,0.031,6.993c0,3.909-0.022,9.005-0.048,15.289h7.694v-13.07c0-0.802,0.083-1.445,0.254-1.915
		c0.329-0.804,0.824-1.474,1.486-2.027c0.662-0.543,1.486-0.811,2.468-0.811c1.337,0,2.324,0.468,2.955,1.402
		c0.631,0.938,0.947,2.227,0.947,3.891v12.525h7.685v-13.414C12.084-21.085,11.272-23.699,9.651-25.49z"/>
	<path fill="#333333" d="M-19.48-38.899c-1.293,0-2.337,0.377-3.139,1.144s-1.206,1.728-1.206,2.892c0,1.154,0.39,2.116,1.17,2.885
		c0.776,0.771,1.809,1.161,3.086,1.161h0.048c1.311,0,2.367-0.39,3.167-1.161c0.8-0.773,1.195-1.735,1.177-2.885
		c-0.009-1.17-0.417-2.129-1.19-2.892C-17.144-38.522-18.187-38.899-19.48-38.899z"/>
</g>
<path fill="#333333" d="M-237.518-27.457v-3.528c0-0.521,0.022-0.931,0.071-1.218c0.047-0.297,0.158-0.583,0.33-0.855
	c0.171-0.284,0.449-0.479,0.833-0.589c0.386-0.109,0.896-0.155,1.534-0.155h3.483v-7.037h-5.564c-3.221,0-5.532,0.771-6.939,2.318
	c-1.405,1.544-2.105,3.82-2.105,6.824v4.241h-4.168v7.037h4.166V0h8.363v-20.42h5.564l0.735-7.037H-237.518z"/>
<path fill="#333333" d="M-139.629-33.065c-1.589,0.694-3.178,1.124-4.77,1.296c1.795-1.09,3.01-2.628,3.643-4.613
	c-1.641,0.984-3.394,1.657-5.257,2.021c-1.641-1.755-3.658-2.642-6.049-2.642c-2.292,0-4.245,0.813-5.855,2.446
	c-1.619,1.64-2.424,3.607-2.424,5.923c0,0.618,0.067,1.261,0.206,1.917c-3.385-0.173-6.561-1.033-9.525-2.579
	c-2.963-1.546-5.479-3.605-7.549-6.182c-0.75,1.299-1.127,2.704-1.127,4.224c0,1.436,0.33,2.765,1,3.993
	c0.667,1.228,1.562,2.22,2.691,2.978c-1.335-0.049-2.579-0.408-3.742-1.063v0.102c0,2.025,0.627,3.798,1.883,5.331
	c1.257,1.529,2.842,2.491,4.756,2.885c-0.718,0.191-1.445,0.284-2.182,0.284c-0.478,0-0.999-0.044-1.562-0.133
	c0.529,1.675,1.504,3.058,2.923,4.132c1.418,1.083,3.027,1.637,4.819,1.671c-3.008,2.384-6.435,3.574-10.28,3.574
	c-0.734,0-1.401-0.036-2-0.106c3.845,2.506,8.085,3.756,12.716,3.756c2.94,0,5.701-0.468,8.278-1.407
	c2.581-0.944,4.787-2.207,6.614-3.784c1.827-1.582,3.408-3.399,4.729-5.455c1.326-2.054,2.311-4.206,2.96-6.439
	c0.649-2.236,0.977-4.482,0.977-6.727c0-0.485-0.009-0.846-0.027-1.086C-142.159-29.93-140.777-31.373-139.629-33.065z"/>
<g>
	<path fill="#333333" d="M-75.979-14.836c-0.43-0.581-0.901-1.121-1.42-1.62c-0.518-0.499-1.039-0.955-1.554-1.363
		c-0.517-0.415-0.991-0.804-1.422-1.183c-0.428-0.375-0.778-0.769-1.043-1.179c-0.268-0.415-0.401-0.824-0.401-1.256
		c0-0.589,0.187-1.144,0.559-1.653c0.371-0.521,0.824-1.015,1.359-1.498c0.535-0.483,1.07-1.008,1.603-1.582s0.984-1.33,1.361-2.271
		c0.369-0.942,0.555-2.017,0.555-3.229c0-1.438-0.315-2.821-0.947-4.148c-0.629-1.325-1.521-2.355-2.667-3.086h3.274l3.279-1.937
		h-10.609c-1.506,0-3.019,0.164-4.538,0.492c-2.253,0.505-4.147,1.664-5.681,3.472c-1.539,1.808-2.306,3.858-2.306,6.149
		c0,2.419,0.864,4.434,2.584,6.036c1.725,1.604,3.79,2.406,6.205,2.406c0.482,0,1.052-0.04,1.701-0.124
		c-0.035,0.133-0.092,0.31-0.171,0.527c-0.081,0.219-0.145,0.398-0.197,0.523c-0.046,0.137-0.088,0.29-0.119,0.479
		c-0.035,0.188-0.048,0.379-0.048,0.585c0,1.077,0.517,2.295,1.552,3.649c-1.23,0.038-2.444,0.144-3.643,0.331
		c-1.197,0.186-2.453,0.483-3.761,0.886c-1.313,0.401-2.486,0.984-3.521,1.744c-1.035,0.765-1.815,1.664-2.332,2.712
		c-0.599,1.212-0.896,2.315-0.896,3.313c0,1.095,0.243,2.092,0.728,2.978c0.487,0.895,1.107,1.622,1.87,2.185
		c0.761,0.567,1.64,1.042,2.635,1.427c0.995,0.385,1.984,0.656,2.959,0.82C-90.054-0.08-89.087,0-88.132,0
		c4.338,0,7.738-1.072,10.197-3.213c2.267-1.999,3.4-4.303,3.4-6.922c0-0.935-0.134-1.808-0.401-2.614
		C-75.202-13.56-75.55-14.256-75.979-14.836z M-85.339-23.757c-0.824,0-1.609-0.213-2.354-0.638s-1.376-0.979-1.896-1.658
		c-0.515-0.678-0.971-1.444-1.357-2.295c-0.386-0.851-0.675-1.702-0.864-2.552c-0.184-0.851-0.276-1.662-0.276-2.429
		c0-1.566,0.412-2.92,1.236-4.05s1.992-1.688,3.498-1.688c1.07,0,2.034,0.33,2.9,1.001c0.871,0.669,1.545,1.52,2.039,2.553
		c0.496,1.03,0.875,2.096,1.142,3.202c0.268,1.106,0.403,2.147,0.403,3.131c0,1.635-0.355,2.951-1.059,3.939
		S-83.77-23.757-85.339-23.757z M-78.627-5.327c-0.443,0.771-1.045,1.37-1.809,1.804c-0.76,0.434-1.571,0.753-2.439,0.957
		c-0.868,0.206-1.775,0.308-2.731,0.308c-1.039,0-2.065-0.122-3.086-0.368c-1.017-0.246-1.995-0.618-2.924-1.115
		c-0.929-0.5-1.683-1.181-2.26-2.065c-0.574-0.873-0.861-1.868-0.861-2.98c0-0.982,0.219-1.854,0.655-2.626
		c0.437-0.769,0.993-1.382,1.677-1.841c0.678-0.456,1.473-0.833,2.381-1.127c0.905-0.295,1.78-0.501,2.621-0.616
		c0.842-0.113,1.701-0.173,2.574-0.173c0.53,0,0.938,0.024,1.212,0.049c0.099,0.066,0.344,0.239,0.741,0.519
		c0.397,0.274,0.665,0.465,0.8,0.563c0.138,0.098,0.39,0.288,0.754,0.563c0.364,0.279,0.621,0.487,0.778,0.629
		c0.151,0.137,0.375,0.346,0.667,0.625c0.292,0.279,0.506,0.518,0.644,0.722c0.136,0.199,0.307,0.447,0.509,0.745
		c0.204,0.301,0.346,0.58,0.425,0.844c0.081,0.271,0.155,0.567,0.23,0.889c0.072,0.324,0.11,0.651,0.11,0.993
		C-77.957-6.995-78.18-6.093-78.627-5.327z"/>
	<polygon fill="#333333" points="-65.042,-34.557 -65.042,-40.84 -68.15,-40.84 -68.15,-34.557 -74.366,-34.557 -74.366,-31.419 
		-68.15,-31.419 -68.15,-25.133 -65.042,-25.133 -65.042,-31.419 -58.826,-31.419 -58.826,-34.557 	"/>
</g>
</svg>
