<?xml version="1.0" encoding="utf-8"?>
<!-- Generator: Adobe Illustrator 16.0.0, SVG Export Plug-In . SVG Version: 6.00 Build 0)  -->
<!DOCTYPE svg PUBLIC "-//W3C//DTD SVG 1.1//EN" "http://www.w3.org/Graphics/SVG/1.1/DTD/svg11.dtd">
<svg version="1.1" id="Layer_1" xmlns="http://www.w3.org/2000/svg" xmlns:xlink="http://www.w3.org/1999/xlink" x="0px" y="0px"
	 width="142.5px" height="72px" viewBox="0 0 142.5 72" enable-background="new 0 0 142.5 72" xml:space="preserve">
<g>
	<rect x="115.197" y="15.324" fill="#FFFFFF" width="3.438" height="10.321"/>
	<path fill="#FFFFFF" d="M129.916,16.266c-0.721-0.788-1.676-1.183-2.863-1.183c-0.438,0-0.836,0.054-1.193,0.163
		c-0.354,0.107-0.657,0.258-0.903,0.453c-0.246,0.194-0.44,0.375-0.588,0.54c-0.142,0.159-0.275,0.343-0.406,0.552v-1.467h-3.428
		l0.01,0.5c0.009,0.333,0.015,1.36,0.015,3.083c0,1.723-0.011,3.969-0.021,6.738h3.428v-5.758c0-0.355,0.037-0.637,0.113-0.844
		c0.146-0.356,0.367-0.652,0.662-0.891c0.295-0.242,0.662-0.36,1.1-0.36c0.596,0,1.035,0.206,1.316,0.618
		c0.281,0.414,0.422,0.984,0.422,1.715v5.52H131V19.73C131,18.208,130.639,17.054,129.916,16.266z"/>
	<path fill="#FFFFFF" d="M116.938,10.355c-0.576,0-1.041,0.167-1.397,0.504s-0.537,0.762-0.537,1.277
		c0,0.506,0.174,0.93,0.521,1.271c0.347,0.34,0.807,0.511,1.375,0.511h0.021c0.584,0,1.057-0.171,1.412-0.511
		c0.355-0.34,0.531-0.763,0.523-1.271c-0.004-0.515-0.185-0.938-0.529-1.277C117.977,10.522,117.514,10.355,116.938,10.355z"/>
</g>
<path fill="#FFFFFF" d="M19.388,14.898v-1.551c0-0.232,0.01-0.413,0.032-0.54c0.021-0.128,0.07-0.253,0.147-0.377
	c0.076-0.124,0.2-0.209,0.371-0.257c0.172-0.048,0.399-0.071,0.683-0.071h1.552V9h-2.479c-1.435,0-2.465,0.34-3.092,1.021
	c-0.626,0.681-0.938,1.684-0.938,3.009v1.868h-1.857V18h1.856v9h3.726v-9h2.479l0.328-3.102H19.388z"/>
<path fill="#FFFFFF" d="M63,12.427c-0.708,0.305-1.416,0.495-2.125,0.571c0.8-0.48,1.341-1.158,1.623-2.033
	c-0.731,0.434-1.512,0.731-2.342,0.891c-0.731-0.776-1.63-1.165-2.695-1.165c-1.021,0-1.891,0.359-2.609,1.079
	c-0.721,0.72-1.08,1.589-1.08,2.61c0,0.273,0.03,0.555,0.092,0.845c-1.508-0.076-2.923-0.455-4.244-1.137
	c-1.32-0.681-2.441-1.589-3.363-2.724c-0.334,0.571-0.502,1.191-0.502,1.861c0,0.632,0.147,1.219,0.445,1.759
	c0.297,0.541,0.696,0.978,1.199,1.313c-0.595-0.023-1.149-0.179-1.667-0.468v0.045c0,0.891,0.279,1.673,0.839,2.347
	c0.56,0.674,1.266,1.098,2.119,1.273c-0.32,0.084-0.644,0.125-0.972,0.125c-0.213,0-0.445-0.018-0.696-0.057
	c0.236,0.739,0.67,1.346,1.302,1.822c0.632,0.476,1.349,0.721,2.147,0.736c-1.34,1.051-2.867,1.576-4.58,1.576
	c-0.327,0-0.624-0.016-0.891-0.046c1.713,1.104,3.602,1.656,5.665,1.656c1.31,0,2.54-0.207,3.688-0.622
	c1.15-0.416,2.133-0.971,2.947-1.668c0.814-0.696,1.518-1.498,2.106-2.404c0.591-0.906,1.03-1.852,1.319-2.838
	S61.16,15.8,61.16,14.81c0-0.213-0.004-0.373-0.012-0.48C61.873,13.809,62.489,13.173,63,12.427z"/>
<g>
	<path fill="#FFFFFF" d="M91.357,20.461c-0.191-0.256-0.401-0.494-0.633-0.714c-0.23-0.22-0.463-0.421-0.692-0.601
		c-0.23-0.18-0.441-0.353-0.634-0.519c-0.19-0.166-0.347-0.339-0.465-0.519c-0.119-0.181-0.179-0.364-0.179-0.552
		c0-0.26,0.083-0.503,0.249-0.73c0.165-0.227,0.367-0.447,0.605-0.66s0.477-0.445,0.714-0.698c0.237-0.253,0.438-0.586,0.606-1.001
		c0.164-0.415,0.247-0.889,0.247-1.422c0-0.634-0.141-1.244-0.422-1.828c-0.28-0.584-0.678-1.039-1.188-1.363h1.459L92.486,9H87.76
		c-0.671,0-1.345,0.072-2.021,0.217c-1.004,0.224-1.848,0.734-2.531,1.531c-0.686,0.797-1.027,1.7-1.027,2.71
		c0,1.067,0.385,1.954,1.151,2.661s1.688,1.06,2.765,1.06c0.215,0,0.469-0.018,0.758-0.054c-0.016,0.058-0.041,0.136-0.076,0.233
		c-0.036,0.097-0.064,0.175-0.088,0.232c-0.021,0.058-0.039,0.128-0.053,0.211c-0.016,0.083-0.021,0.167-0.021,0.254
		c0,0.476,0.23,1.013,0.691,1.612c-0.548,0.015-1.089,0.062-1.623,0.146c-0.533,0.082-1.093,0.213-1.676,0.389
		c-0.585,0.177-1.107,0.434-1.568,0.769c-0.461,0.335-0.809,0.733-1.039,1.195c-0.267,0.534-0.399,1.021-0.399,1.46
		c0,0.483,0.108,0.922,0.324,1.314c0.217,0.393,0.493,0.714,0.833,0.963c0.339,0.249,0.73,0.458,1.174,0.628
		c0.443,0.169,0.884,0.29,1.318,0.362C85.087,26.965,85.518,27,85.943,27c1.933,0,3.447-0.473,4.543-1.416
		c1.01-0.881,1.515-1.897,1.515-3.051c0-0.412-0.06-0.796-0.179-1.152C91.704,21.023,91.549,20.717,91.357,20.461z M87.188,16.529
		c-0.367,0-0.717-0.094-1.049-0.281c-0.332-0.188-0.613-0.431-0.845-0.73c-0.229-0.299-0.433-0.637-0.604-1.012
		s-0.301-0.75-0.385-1.125c-0.082-0.375-0.123-0.732-0.123-1.071c0-0.692,0.184-1.287,0.551-1.784
		c0.367-0.498,0.888-0.747,1.559-0.747c0.477,0,0.906,0.148,1.292,0.444c0.388,0.296,0.688,0.671,0.908,1.125
		c0.221,0.455,0.39,0.924,0.509,1.412c0.119,0.487,0.18,0.947,0.18,1.379c0,0.722-0.158,1.301-0.472,1.737
		S87.887,16.529,87.188,16.529z M90.178,24.652c-0.197,0.34-0.466,0.604-0.806,0.795c-0.339,0.191-0.7,0.332-1.087,0.422
		c-0.387,0.091-0.791,0.136-1.217,0.136c-0.463,0-0.92-0.054-1.375-0.162c-0.453-0.108-0.889-0.272-1.303-0.492
		c-0.414-0.22-0.75-0.522-1.007-0.909C83.128,24.057,83,23.618,83,23.128c0-0.432,0.098-0.818,0.292-1.157
		c0.194-0.339,0.442-0.609,0.747-0.812c0.302-0.201,0.656-0.367,1.061-0.497c0.403-0.13,0.793-0.22,1.168-0.271
		c0.375-0.051,0.758-0.076,1.146-0.076c0.236,0,0.418,0.008,0.54,0.021c0.044,0.029,0.153,0.105,0.33,0.228
		c0.177,0.122,0.296,0.206,0.356,0.249c0.062,0.043,0.174,0.127,0.336,0.248c0.162,0.123,0.276,0.215,0.347,0.277
		c0.067,0.061,0.167,0.152,0.297,0.275c0.13,0.123,0.226,0.229,0.287,0.318c0.061,0.089,0.137,0.2,0.227,0.33
		c0.091,0.131,0.154,0.254,0.189,0.373c0.036,0.119,0.069,0.25,0.103,0.39c0.032,0.142,0.049,0.287,0.049,0.438
		C90.477,23.917,90.377,24.314,90.178,24.652z"/>
	<polygon fill="#FFFFFF" points="96.23,11.769 96.23,9 94.846,9 94.846,11.769 92.076,11.769 92.076,13.153 94.846,13.153 
		94.846,15.923 96.23,15.923 96.23,13.153 99,13.153 99,11.769 	"/>
</g>
<g>
	<rect x="114.789" y="50.824" fill="#333333" width="3.438" height="10.32"/>
	<path fill="#333333" d="M129.508,51.766c-0.721-0.787-1.676-1.183-2.863-1.183c-0.438,0-0.836,0.054-1.192,0.163
		c-0.354,0.107-0.658,0.258-0.904,0.453c-0.246,0.193-0.44,0.375-0.588,0.539c-0.142,0.158-0.274,0.344-0.405,0.553v-1.467h-3.429
		l0.011,0.5c0.008,0.332,0.014,1.359,0.014,3.082s-0.01,3.969-0.021,6.738h3.428v-5.761c0-0.354,0.037-0.637,0.113-0.844
		c0.146-0.354,0.367-0.649,0.662-0.894c0.295-0.239,0.662-0.357,1.1-0.357c0.596,0,1.035,0.206,1.316,0.618
		c0.281,0.413,0.422,0.981,0.422,1.715v5.521h3.424V55.23C130.592,53.707,130.23,52.555,129.508,51.766z"/>
	<path fill="#333333" d="M116.529,45.855c-0.576,0-1.041,0.166-1.398,0.504s-0.537,0.762-0.537,1.274
		c0,0.509,0.174,0.933,0.521,1.271c0.346,0.34,0.806,0.512,1.375,0.512h0.021c0.584,0,1.055-0.172,1.411-0.512
		c0.356-0.341,0.532-0.765,0.524-1.271c-0.004-0.516-0.186-0.938-0.53-1.274C117.57,46.021,117.105,45.855,116.529,45.855z"/>
</g>
<path fill="#333333" d="M19.388,50.898v-1.555c0-0.229,0.01-0.41,0.032-0.537c0.021-0.131,0.07-0.257,0.147-0.377
	c0.076-0.125,0.2-0.211,0.371-0.26c0.172-0.048,0.399-0.068,0.683-0.068h1.552V45h-2.479c-1.435,0-2.465,0.34-3.092,1.021
	c-0.626,0.681-0.938,1.684-0.938,3.008v1.869h-1.857V54h1.856v9h3.726v-9h2.479l0.328-3.102H19.388z"/>
<path fill="#333333" d="M63,48.427c-0.708,0.306-1.416,0.495-2.125,0.571c0.8-0.48,1.341-1.158,1.623-2.033
	c-0.731,0.434-1.512,0.73-2.342,0.891c-0.731-0.773-1.63-1.164-2.695-1.164c-1.021,0-1.891,0.358-2.609,1.078
	c-0.721,0.723-1.08,1.59-1.08,2.61c0,0.272,0.03,0.556,0.092,0.845c-1.508-0.076-2.923-0.455-4.244-1.137
	c-1.32-0.682-2.441-1.589-3.363-2.725c-0.334,0.572-0.502,1.191-0.502,1.861c0,0.633,0.147,1.219,0.445,1.76
	c0.297,0.541,0.696,0.979,1.199,1.313c-0.595-0.021-1.149-0.18-1.667-0.469v0.045c0,0.893,0.279,1.674,0.839,2.35
	c0.56,0.674,1.266,1.098,2.119,1.271c-0.32,0.084-0.644,0.125-0.972,0.125c-0.213,0-0.445-0.02-0.696-0.059
	c0.236,0.738,0.67,1.348,1.302,1.821c0.632,0.478,1.349,0.722,2.147,0.736c-1.34,1.051-2.867,1.575-4.58,1.575
	c-0.327,0-0.624-0.016-0.891-0.047c1.713,1.104,3.602,1.655,5.665,1.655c1.31,0,2.54-0.206,3.688-0.62
	c1.15-0.416,2.133-0.973,2.947-1.668c0.814-0.697,1.518-1.498,2.106-2.404c0.591-0.905,1.03-1.854,1.319-2.838
	c0.289-0.985,0.435-1.976,0.435-2.965c0-0.214-0.004-0.373-0.012-0.479C61.873,49.809,62.489,49.173,63,48.427z"/>
<g>
	<path fill="#333333" d="M91.357,56.461c-0.191-0.256-0.401-0.494-0.633-0.714c-0.23-0.22-0.463-0.421-0.692-0.601
		c-0.23-0.183-0.441-0.354-0.634-0.521c-0.19-0.165-0.347-0.339-0.465-0.52c-0.119-0.183-0.179-0.363-0.179-0.554
		c0-0.26,0.083-0.504,0.249-0.729c0.165-0.229,0.367-0.447,0.605-0.66s0.477-0.444,0.714-0.697s0.438-0.586,0.606-1.001
		c0.164-0.415,0.247-0.889,0.247-1.423c0-0.634-0.141-1.243-0.422-1.828c-0.28-0.584-0.678-1.038-1.188-1.36h1.459L92.486,45H87.76
		c-0.671,0-1.345,0.072-2.021,0.217c-1.004,0.223-1.848,0.733-2.531,1.53c-0.686,0.797-1.027,1.7-1.027,2.71
		c0,1.066,0.385,1.954,1.151,2.66c0.769,0.707,1.688,1.061,2.765,1.061c0.215,0,0.469-0.018,0.758-0.055
		c-0.016,0.059-0.041,0.137-0.076,0.232c-0.036,0.097-0.064,0.176-0.088,0.23c-0.021,0.061-0.039,0.128-0.053,0.211
		c-0.016,0.083-0.021,0.167-0.021,0.258c0,0.475,0.23,1.012,0.691,1.608c-0.548,0.017-1.089,0.063-1.623,0.146
		c-0.533,0.082-1.093,0.213-1.676,0.391c-0.585,0.177-1.107,0.434-1.568,0.769c-0.461,0.337-0.809,0.733-1.039,1.195
		c-0.267,0.534-0.399,1.021-0.399,1.46c0,0.482,0.108,0.922,0.324,1.313c0.217,0.395,0.493,0.715,0.833,0.963
		c0.339,0.25,0.73,0.459,1.174,0.629s0.884,0.289,1.318,0.361C85.087,62.965,85.518,63,85.943,63c1.933,0,3.447-0.473,4.543-1.416
		c1.01-0.881,1.515-1.896,1.515-3.051c0-0.412-0.06-0.797-0.179-1.152C91.704,57.023,91.549,56.717,91.357,56.461z M87.188,52.529
		c-0.367,0-0.717-0.094-1.049-0.281s-0.613-0.432-0.845-0.73c-0.229-0.299-0.433-0.637-0.604-1.012s-0.301-0.75-0.385-1.125
		c-0.082-0.375-0.123-0.732-0.123-1.07c0-0.69,0.184-1.287,0.551-1.785s0.888-0.744,1.559-0.744c0.477,0,0.906,0.146,1.292,0.441
		c0.388,0.295,0.688,0.67,0.908,1.125c0.221,0.454,0.39,0.924,0.509,1.411s0.18,0.946,0.18,1.38c0,0.721-0.158,1.301-0.472,1.736
		S87.887,52.529,87.188,52.529z M90.178,60.652c-0.197,0.34-0.466,0.604-0.806,0.795c-0.339,0.191-0.7,0.332-1.087,0.422
		c-0.387,0.091-0.791,0.136-1.217,0.136c-0.463,0-0.92-0.054-1.375-0.162c-0.453-0.108-0.889-0.272-1.303-0.491
		c-0.414-0.221-0.75-0.521-1.007-0.91C83.128,60.057,83,59.618,83,59.128c0-0.433,0.098-0.817,0.292-1.157
		c0.194-0.339,0.442-0.609,0.747-0.812c0.302-0.201,0.656-0.367,1.061-0.497c0.403-0.13,0.793-0.221,1.168-0.271
		c0.375-0.05,0.758-0.076,1.146-0.076c0.236,0,0.418,0.011,0.54,0.021c0.044,0.029,0.153,0.105,0.33,0.229
		c0.177,0.121,0.296,0.205,0.356,0.248c0.062,0.043,0.174,0.127,0.336,0.248c0.162,0.123,0.276,0.215,0.347,0.277
		c0.067,0.061,0.167,0.152,0.297,0.275s0.226,0.229,0.287,0.318c0.061,0.088,0.137,0.197,0.227,0.328
		c0.091,0.133,0.154,0.256,0.189,0.372c0.036,0.119,0.069,0.25,0.103,0.392c0.032,0.143,0.049,0.287,0.049,0.438
		C90.477,59.917,90.377,60.314,90.178,60.652z"/>
	<polygon fill="#333333" points="96.23,47.77 96.23,45 94.846,45 94.846,47.77 92.076,47.77 92.076,49.152 94.846,49.152 
		94.846,51.923 96.23,51.923 96.23,49.152 99,49.152 99,47.77 	"/>
</g>
</svg>
