<?xml version="1.0" encoding="utf-8"?>
<!-- Generator: Adobe Illustrator 16.0.0, SVG Export Plug-In . SVG Version: 6.00 Build 0)  -->
<!DOCTYPE svg PUBLIC "-//W3C//DTD SVG 1.1//EN" "http://www.w3.org/Graphics/SVG/1.1/DTD/svg11.dtd">
<svg version="1.1" id="Layer_1" xmlns="http://www.w3.org/2000/svg" xmlns:xlink="http://www.w3.org/1999/xlink" x="0px" y="0px"
	 width="60px" height="60px" viewBox="0 0 60 60" enable-background="new 0 0 60 60" xml:space="preserve">
<g>
	<circle fill="#2C5890" cx="30" cy="30" r="30"/>
	<g>
		<path fill="#ECF0F1" d="M26.001,40.002c0,3.314-2.688,5.998-6.004,5.998C16.688,46,14,43.316,14,40.002s2.688-6.001,5.998-6.001
			C23.313,34.001,26.001,36.688,26.001,40.002z"/>
	</g>
</g>
<g>
	<g>
		<path fill="#ECF0F1" d="M40.002,33.999c3.314,0,5.998,2.688,5.998,6.004C46,43.313,43.316,46,40.002,46s-6.001-2.688-6.001-5.998
			C34.001,36.688,36.688,33.999,40.002,33.999z"/>
		<path fill="#ECF0F1" d="M30.002,13.999c3.314,0,5.998,2.688,5.998,6.004C36,23.313,33.316,26,30.002,26s-6.001-2.688-6.001-5.998
			C24.001,16.688,26.688,13.999,30.002,13.999z"/>
	</g>
</g>
</svg>
